<svg width="150" height="75" viewBox="0 0 150 75" fill="none" xmlns="http://www.w3.org/2000/svg">
<path fill-rule="evenodd" clip-rule="evenodd" d="M84.7768 12.0197C84.8967 12.1901 84.9998 12.3737 85.0839 12.5686C90.0438 13.9067 93.6952 18.3349 93.6952 23.5771C93.6952 29.8757 88.4243 35 81.9455 35C78.563 35 75.5104 33.6028 73.3646 31.3715H65.2193C63.4662 31.3715 62.04 29.9849 62.04 28.2806C62.04 27.3018 62.5109 26.4283 63.2436 25.8616C62.5109 25.2949 62.04 24.4215 62.04 23.4426C62.04 22.4638 62.5109 21.5904 63.2436 21.0237C62.5109 20.457 62.04 19.5835 62.04 18.6047C62.04 17.6259 62.5109 16.7525 63.2436 16.1857C62.5109 15.619 62.04 14.7456 62.04 13.7668C62.04 12.0625 63.4662 10.6759 65.2193 10.6759H67.0218C66.6699 10.1785 66.4634 9.57679 66.4634 8.92884C66.4634 8.28089 66.67 7.67917 67.0218 7.18181H61.487C59.734 7.18181 58.3077 5.7952 58.3077 4.0909C58.3077 2.38661 59.734 1 61.487 1H78.4205C80.1735 1 81.5998 2.38661 81.5998 4.0909C81.5998 4.73885 81.3932 5.34057 81.0413 5.83794H86.5762C88.3292 5.83794 89.7555 7.22454 89.7555 8.92884C89.7555 10.6331 88.3292 12.0197 86.5762 12.0197H84.7768ZM88.3732 8.92884C88.3732 7.96555 87.5671 7.18181 86.5762 7.18181H69.6427C68.6518 7.18181 67.8457 7.96555 67.8457 8.92884C67.8457 9.89213 68.6518 10.6759 69.6427 10.6759H82.1527H86.5762C87.5671 10.6759 88.3732 9.89213 88.3732 8.92884ZM59.69 4.0909C59.69 5.05419 60.4961 5.83794 61.487 5.83794H78.4205C79.4114 5.83794 80.2175 5.05419 80.2175 4.0909C80.2175 3.12762 79.4114 2.34387 78.4205 2.34387H61.487C60.4961 2.34387 59.69 3.12762 59.69 4.0909ZM82.1527 12.0197H65.2193C64.2285 12.0197 63.4223 12.8035 63.4223 13.7668C63.4223 14.7301 64.2285 15.5138 65.2193 15.5138H73.6309C75.7592 13.4395 78.7008 12.1542 81.9455 12.1542C82.2794 12.1542 82.6099 12.1686 82.9369 12.1953C82.6977 12.0826 82.4311 12.0197 82.1527 12.0197ZM72.4499 16.8577H65.2193C64.2284 16.8577 63.4223 17.6414 63.4223 18.6047C63.4223 19.5681 64.2284 20.3517 65.2193 20.3517H70.6734C71.0586 19.0814 71.6653 17.9027 72.4499 16.8577ZM70.356 21.6956H65.2193C64.2284 21.6956 63.4223 22.4793 63.4223 23.4426C63.4223 24.406 64.2284 25.1897 65.2193 25.1897H70.3134C70.2364 24.6627 70.1957 24.1245 70.1957 23.5771C70.1957 22.9363 70.2512 22.3079 70.356 21.6956ZM63.4223 28.2806C63.4223 29.2439 64.2284 30.0276 65.2193 30.0276H72.2539C71.5109 28.9758 70.9443 27.7977 70.5956 26.5335H65.2193C64.2284 26.5335 63.4223 27.3172 63.4223 28.2806ZM71.578 23.5771C71.578 29.1347 76.2289 33.6561 81.9455 33.6561C87.662 33.6561 92.3129 29.1347 92.3129 23.5771C92.3129 18.0195 87.662 13.4981 81.9455 13.4981C76.2289 13.4981 71.578 18.0195 71.578 23.5771ZM80.1824 21.2802C80.1824 22.0967 80.9718 22.7609 81.9421 22.7609C83.7945 22.7609 85.3016 24.1228 85.3016 25.7969C85.3016 27.2219 84.2094 28.42 82.742 28.7452V29.0811C82.742 29.5105 82.3838 29.8588 81.9421 29.8588C81.5005 29.8588 81.1423 29.5105 81.1423 29.0811V28.7452C79.6748 28.42 78.5827 27.2219 78.5827 25.7969C78.5827 25.3675 78.9409 25.0193 79.3826 25.0193C79.8243 25.0193 80.1824 25.3675 80.1824 25.7969C80.1824 26.6134 80.9718 27.2776 81.9421 27.2776C82.9125 27.2776 83.7018 26.6134 83.7018 25.7969C83.7018 24.9804 82.9125 24.3161 81.9421 24.3161C80.0897 24.3161 78.5827 22.9542 78.5827 21.2802C78.5827 19.8553 79.6748 18.6571 81.1423 18.3319V17.9275C81.1423 17.4981 81.5005 17.1499 81.9421 17.1499C82.3838 17.1499 82.742 17.4981 82.742 17.9275V18.3319C84.2094 18.6571 85.3016 19.8553 85.3016 21.2802C85.3016 21.7096 84.9434 22.0579 84.5017 22.0579C84.06 22.0579 83.7018 21.7096 83.7018 21.2802C83.7018 20.4637 82.9125 19.7995 81.9421 19.7995C80.9718 19.7995 80.1824 20.4637 80.1824 21.2802Z" fill="#FF872C"/>
<path d="M85.0839 12.5686L84.8543 12.6677L84.9022 12.7785L85.0188 12.8099L85.0839 12.5686ZM84.7768 12.0197V11.7697H84.2951L84.5724 12.1637L84.7768 12.0197ZM73.3646 31.3715L73.5448 31.1982L73.4711 31.1215H73.3646V31.3715ZM63.2436 25.8616L63.3966 26.0594L63.6522 25.8616L63.3966 25.6639L63.2436 25.8616ZM63.2436 21.0237L63.3966 21.2214L63.6522 21.0237L63.3966 20.8259L63.2436 21.0237ZM63.2436 16.1857L63.3966 16.3835L63.6522 16.1857L63.3966 15.988L63.2436 16.1857ZM67.0218 10.6759V10.9259H67.505L67.2259 10.5315L67.0218 10.6759ZM67.0218 7.18181L67.2259 7.32619L67.5049 6.93181H67.0218V7.18181ZM81.0413 5.83794L80.8373 5.69355L80.5582 6.08794H81.0413V5.83794ZM73.6309 15.5138V15.7638H73.7325L73.8053 15.6928L73.6309 15.5138ZM82.9369 12.1953L82.9165 12.4444L83.0434 11.9691L82.9369 12.1953ZM72.4499 16.8577L72.6498 17.0078L72.9502 16.6077H72.4499V16.8577ZM70.6734 20.3517V20.6017H70.8588L70.9126 20.4243L70.6734 20.3517ZM70.356 21.6956L70.6024 21.7378L70.6524 21.4456H70.356V21.6956ZM70.3134 25.1897V25.4397H70.6025L70.5607 25.1536L70.3134 25.1897ZM72.2539 30.0276V30.2776H72.7365L72.4581 29.8834L72.2539 30.0276ZM70.5956 26.5335L70.8366 26.4671L70.7859 26.2835H70.5956V26.5335ZM82.742 28.7452L82.6879 28.5011L82.492 28.5445V28.7452H82.742ZM81.1423 28.7452H81.3923V28.5445L81.1964 28.5011L81.1423 28.7452ZM81.1423 18.3319L81.1964 18.576L81.3923 18.5326V18.3319H81.1423ZM82.742 18.3319H82.492V18.5326L82.6879 18.576L82.742 18.3319ZM85.3134 12.4695C85.2225 12.2589 85.111 12.0602 84.9812 11.8758L84.5724 12.1637C84.6824 12.3199 84.777 12.4886 84.8543 12.6677L85.3134 12.4695ZM93.9452 23.5771C93.9452 18.2145 90.2107 13.6928 85.149 12.3272L85.0188 12.8099C89.8768 14.1206 93.4452 18.4552 93.4452 23.5771H93.9452ZM81.9455 35.25C88.5556 35.25 93.9452 30.0204 93.9452 23.5771H93.4452C93.4452 29.731 88.2929 34.75 81.9455 34.75V35.25ZM73.1844 31.5448C75.376 33.8237 78.4931 35.25 81.9455 35.25V34.75C78.6329 34.75 75.6448 33.3819 73.5448 31.1982L73.1844 31.5448ZM65.2193 31.6215H73.3646V31.1215H65.2193V31.6215ZM61.79 28.2806C61.79 30.1295 63.3349 31.6215 65.2193 31.6215V31.1215C63.5976 31.1215 62.29 29.8402 62.29 28.2806H61.79ZM63.0907 25.6639C62.301 26.2746 61.79 27.2192 61.79 28.2806H62.29C62.29 27.3844 62.7208 26.582 63.3966 26.0594L63.0907 25.6639ZM61.79 23.4426C61.79 24.5041 62.301 25.4486 63.0907 26.0594L63.3966 25.6639C62.7208 25.1412 62.29 24.3388 62.29 23.4426H61.79ZM63.0907 20.8259C62.301 21.4367 61.79 22.3812 61.79 23.4426H62.29C62.29 22.5465 62.7208 21.7441 63.3966 21.2214L63.0907 20.8259ZM61.79 18.6047C61.79 19.6661 62.301 20.6107 63.0907 21.2214L63.3966 20.8259C62.7208 20.3033 62.29 19.5009 62.29 18.6047H61.79ZM63.0907 15.988C62.301 16.5987 61.79 17.5433 61.79 18.6047H62.29C62.29 17.7085 62.7208 16.9062 63.3966 16.3835L63.0907 15.988ZM61.79 13.7668C61.79 14.8282 62.301 15.7727 63.0907 16.3835L63.3966 15.988C62.7208 15.4653 62.29 14.663 62.29 13.7668H61.79ZM65.2193 10.4259C63.3349 10.4259 61.79 11.9178 61.79 13.7668H62.29C62.29 12.2071 63.5976 10.9259 65.2193 10.9259V10.4259ZM67.0218 10.4259H65.2193V10.9259H67.0218V10.4259ZM66.2134 8.92884C66.2134 9.63092 66.4374 10.2827 66.8178 10.8203L67.2259 10.5315C66.9024 10.0743 66.7134 9.52265 66.7134 8.92884H66.2134ZM66.8178 7.03742C66.4375 7.57498 66.2134 8.22674 66.2134 8.92884H66.7134C66.7134 8.33504 66.9025 7.78337 67.2259 7.32619L66.8178 7.03742ZM61.487 7.43181H67.0218V6.93181H61.487V7.43181ZM58.0577 4.0909C58.0577 5.93987 59.6026 7.43181 61.487 7.43181V6.93181C59.8653 6.93181 58.5577 5.65053 58.5577 4.0909H58.0577ZM61.487 0.75C59.6026 0.75 58.0577 2.24193 58.0577 4.0909H58.5577C58.5577 2.53128 59.8653 1.25 61.487 1.25V0.75ZM78.4205 0.75H61.487V1.25H78.4205V0.75ZM81.8498 4.0909C81.8498 2.24193 80.3049 0.75 78.4205 0.75V1.25C80.0421 1.25 81.3498 2.53128 81.3498 4.0909H81.8498ZM81.2454 5.98232C81.6257 5.44476 81.8498 4.793 81.8498 4.0909H81.3498C81.3498 4.6847 81.1607 5.23637 80.8373 5.69355L81.2454 5.98232ZM86.5762 5.58794H81.0413V6.08794H86.5762V5.58794ZM90.0055 8.92884C90.0055 7.07987 88.4606 5.58794 86.5762 5.58794V6.08794C88.1978 6.08794 89.5055 7.36921 89.5055 8.92884H90.0055ZM86.5762 12.2697C88.4606 12.2697 90.0055 10.7778 90.0055 8.92884H89.5055C89.5055 10.4885 88.1978 11.7697 86.5762 11.7697V12.2697ZM84.7768 12.2697H86.5762V11.7697H84.7768V12.2697ZM86.5762 7.43181C87.4357 7.43181 88.1232 8.11022 88.1232 8.92884H88.6232C88.6232 7.82089 87.6985 6.93181 86.5762 6.93181V7.43181ZM69.6427 7.43181H86.5762V6.93181H69.6427V7.43181ZM68.0957 8.92884C68.0957 8.11022 68.7832 7.43181 69.6427 7.43181V6.93181C68.5204 6.93181 67.5957 7.82089 67.5957 8.92884H68.0957ZM69.6427 10.4259C68.7832 10.4259 68.0957 9.74746 68.0957 8.92884H67.5957C67.5957 10.0368 68.5204 10.9259 69.6427 10.9259V10.4259ZM82.1527 10.4259H69.6427V10.9259H82.1527V10.4259ZM86.5762 10.4259H82.1527V10.9259H86.5762V10.4259ZM88.1232 8.92884C88.1232 9.74746 87.4357 10.4259 86.5762 10.4259V10.9259C87.6985 10.9259 88.6232 10.0368 88.6232 8.92884H88.1232ZM61.487 5.58794C60.6275 5.58794 59.94 4.90952 59.94 4.0909H59.44C59.44 5.19886 60.3647 6.08794 61.487 6.08794V5.58794ZM78.4205 5.58794H61.487V6.08794H78.4205V5.58794ZM79.9675 4.0909C79.9675 4.90952 79.28 5.58794 78.4205 5.58794V6.08794C79.5428 6.08794 80.4675 5.19886 80.4675 4.0909H79.9675ZM78.4205 2.59387C79.28 2.59387 79.9675 3.27228 79.9675 4.0909H80.4675C80.4675 2.98295 79.5428 2.09387 78.4205 2.09387V2.59387ZM61.487 2.59387H78.4205V2.09387H61.487V2.59387ZM59.94 4.0909C59.94 3.27228 60.6275 2.59387 61.487 2.59387V2.09387C60.3647 2.09387 59.44 2.98295 59.44 4.0909H59.94ZM65.2193 12.2697H82.1527V11.7697H65.2193V12.2697ZM63.6723 13.7668C63.6723 12.9482 64.3598 12.2697 65.2193 12.2697V11.7697C64.0971 11.7697 63.1723 12.6588 63.1723 13.7668H63.6723ZM65.2193 15.2638C64.3598 15.2638 63.6723 14.5854 63.6723 13.7668H63.1723C63.1723 14.8747 64.0971 15.7638 65.2193 15.7638V15.2638ZM73.6309 15.2638H65.2193V15.7638H73.6309V15.2638ZM81.9455 11.9042C78.6338 11.9042 75.6301 13.2163 73.4564 15.3348L73.8053 15.6928C75.8883 13.6628 78.7678 12.4042 81.9455 12.4042V11.9042ZM82.9572 11.9461C82.6239 11.9189 82.2866 11.9042 81.9455 11.9042V12.4042C82.2722 12.4042 82.596 12.4183 82.9165 12.4444L82.9572 11.9461ZM82.1527 12.2697C82.3933 12.2697 82.6236 12.3241 82.8303 12.4214L83.0434 11.9691C82.7719 11.8412 82.469 11.7697 82.1527 11.7697V12.2697ZM65.2193 17.1077H72.4499V16.6077H65.2193V17.1077ZM63.6723 18.6047C63.6723 17.7861 64.3598 17.1077 65.2193 17.1077V16.6077C64.097 16.6077 63.1723 17.4968 63.1723 18.6047H63.6723ZM65.2193 20.1017C64.3598 20.1017 63.6723 19.4234 63.6723 18.6047H63.1723C63.1723 19.7127 64.097 20.6017 65.2193 20.6017V20.1017ZM70.6734 20.1017H65.2193V20.6017H70.6734V20.1017ZM72.2499 16.7076C71.4483 17.7753 70.8281 18.9802 70.4341 20.2792L70.9126 20.4243C71.2892 19.1827 71.8822 18.0301 72.6498 17.0078L72.2499 16.7076ZM65.2193 21.9456H70.356V21.4456H65.2193V21.9456ZM63.6723 23.4426C63.6723 22.624 64.3598 21.9456 65.2193 21.9456V21.4456C64.097 21.4456 63.1723 22.3346 63.1723 23.4426H63.6723ZM65.2193 24.9397C64.3598 24.9397 63.6723 24.2613 63.6723 23.4426H63.1723C63.1723 24.5507 64.097 25.4397 65.2193 25.4397V24.9397ZM70.3134 24.9397H65.2193V25.4397H70.3134V24.9397ZM69.9457 23.5771C69.9457 24.1369 69.9874 24.6872 70.066 25.2258L70.5607 25.1536C70.4855 24.6382 70.4457 24.112 70.4457 23.5771H69.9457ZM70.1096 21.6534C70.0024 22.2794 69.9457 22.9218 69.9457 23.5771H70.4457C70.4457 22.9507 70.4999 22.3365 70.6024 21.7378L70.1096 21.6534ZM65.2193 29.7776C64.3598 29.7776 63.6723 29.0993 63.6723 28.2806H63.1723C63.1723 29.3886 64.097 30.2776 65.2193 30.2776V29.7776ZM72.2539 29.7776H65.2193V30.2776H72.2539V29.7776ZM70.3546 26.6C70.7112 27.8927 71.2905 29.0971 72.0497 30.1718L72.4581 29.8834C71.7313 28.8545 71.1774 27.7026 70.8366 26.4671L70.3546 26.6ZM65.2193 26.7835H70.5956V26.2835H65.2193V26.7835ZM63.6723 28.2806C63.6723 27.4619 64.3598 26.7835 65.2193 26.7835V26.2835C64.097 26.2835 63.1723 27.1726 63.1723 28.2806H63.6723ZM81.9455 33.4061C76.3602 33.4061 71.828 28.99 71.828 23.5771H71.328C71.328 29.2794 76.0975 33.9061 81.9455 33.9061V33.4061ZM92.0629 23.5771C92.0629 28.99 87.5307 33.4061 81.9455 33.4061V33.9061C87.7934 33.9061 92.5629 29.2794 92.5629 23.5771H92.0629ZM81.9455 13.7481C87.5307 13.7481 92.0629 18.1642 92.0629 23.5771H92.5629C92.5629 17.8748 87.7934 13.2481 81.9455 13.2481V13.7481ZM71.828 23.5771C71.828 18.1642 76.3602 13.7481 81.9455 13.7481V13.2481C76.0975 13.2481 71.328 17.8748 71.328 23.5771H71.828ZM81.9421 22.5109C81.0677 22.5109 80.4324 21.9199 80.4324 21.2802H79.9324C79.9324 22.2734 80.8759 23.0109 81.9421 23.0109V22.5109ZM85.5516 25.7969C85.5516 23.9615 83.9082 22.5109 81.9421 22.5109V23.0109C83.6809 23.0109 85.0516 24.2841 85.0516 25.7969H85.5516ZM82.7961 28.9893C84.3584 28.6431 85.5516 27.358 85.5516 25.7969H85.0516C85.0516 27.0857 84.0605 28.197 82.6879 28.5011L82.7961 28.9893ZM82.992 29.0811V28.7452H82.492V29.0811H82.992ZM81.9421 30.1088C82.5152 30.1088 82.992 29.6552 82.992 29.0811H82.492C82.492 29.3659 82.2524 29.6088 81.9421 29.6088V30.1088ZM80.8923 29.0811C80.8923 29.6552 81.3691 30.1088 81.9421 30.1088V29.6088C81.6318 29.6088 81.3923 29.3659 81.3923 29.0811H80.8923ZM80.8923 28.7452V29.0811H81.3923V28.7452H80.8923ZM78.3327 25.7969C78.3327 27.358 79.5259 28.6431 81.0882 28.9893L81.1964 28.5011C79.8238 28.197 78.8327 27.0857 78.8327 25.7969H78.3327ZM79.3826 24.7693C78.8095 24.7693 78.3327 25.2228 78.3327 25.7969H78.8327C78.8327 25.5121 79.0723 25.2693 79.3826 25.2693V24.7693ZM80.4324 25.7969C80.4324 25.2228 79.9556 24.7693 79.3826 24.7693V25.2693C79.6929 25.2693 79.9324 25.5121 79.9324 25.7969H80.4324ZM81.9421 27.0276C81.0677 27.0276 80.4324 26.4366 80.4324 25.7969H79.9324C79.9324 26.7901 80.8759 27.5276 81.9421 27.5276V27.0276ZM83.4518 25.7969C83.4518 26.4366 82.8166 27.0276 81.9421 27.0276V27.5276C83.0084 27.5276 83.9518 26.7901 83.9518 25.7969H83.4518ZM81.9421 24.5661C82.8166 24.5661 83.4518 25.1571 83.4518 25.7969H83.9518C83.9518 24.8036 83.0084 24.0661 81.9421 24.0661V24.5661ZM78.3327 21.2802C78.3327 23.1155 79.9761 24.5661 81.9421 24.5661V24.0661C80.2034 24.0661 78.8327 22.7929 78.8327 21.2802H78.3327ZM81.0882 18.0878C79.5259 18.4341 78.3327 19.7191 78.3327 21.2802H78.8327C78.8327 19.9915 79.8238 18.8802 81.1964 18.576L81.0882 18.0878ZM80.8923 17.9275V18.3319H81.3923V17.9275H80.8923ZM81.9421 16.8999C81.3691 16.8999 80.8923 17.3534 80.8923 17.9275H81.3923C81.3923 17.6427 81.6318 17.3999 81.9421 17.3999V16.8999ZM82.992 17.9275C82.992 17.3534 82.5152 16.8999 81.9421 16.8999V17.3999C82.2524 17.3999 82.492 17.6427 82.492 17.9275H82.992ZM82.992 18.3319V17.9275H82.492V18.3319H82.992ZM85.5516 21.2802C85.5516 19.7191 84.3584 18.4341 82.7961 18.0878L82.6879 18.576C84.0605 18.8802 85.0516 19.9915 85.0516 21.2802H85.5516ZM84.5017 22.3079C85.0748 22.3079 85.5516 21.8543 85.5516 21.2802H85.0516C85.0516 21.565 84.812 21.8079 84.5017 21.8079V22.3079ZM83.4518 21.2802C83.4518 21.8543 83.9286 22.3079 84.5017 22.3079V21.8079C84.1914 21.8079 83.9518 21.565 83.9518 21.2802H83.4518ZM81.9421 20.0495C82.8166 20.0495 83.4518 20.6405 83.4518 21.2802H83.9518C83.9518 20.287 83.0084 19.5495 81.9421 19.5495V20.0495ZM80.4324 21.2802C80.4324 20.6405 81.0677 20.0495 81.9421 20.0495V19.5495C80.8759 19.5495 79.9324 20.287 79.9324 21.2802H80.4324Z" fill="#FF872C"/>
<path d="M11.1561 59.876H4.75409L3.65409 63H1.03609L6.51409 47.688H9.41809L14.8961 63H12.2561L11.1561 59.876ZM10.4521 57.83L7.96609 50.724L5.45809 57.83H10.4521ZM29.0919 63L27.1999 61.108C26.4666 61.8413 25.6673 62.3913 24.8019 62.758C23.9366 63.11 22.9686 63.286 21.8979 63.286C20.8126 63.286 19.8519 63.0953 19.0159 62.714C18.1799 62.3327 17.5346 61.79 17.0799 61.086C16.6253 60.3673 16.3979 59.5387 16.3979 58.6C16.3979 57.544 16.6986 56.6053 17.2999 55.784C17.9013 54.948 18.7959 54.288 19.9839 53.804C19.5586 53.2907 19.2579 52.814 19.0819 52.374C18.9059 51.9193 18.8179 51.4207 18.8179 50.878C18.8179 50.2033 18.9866 49.602 19.3239 49.074C19.6759 48.546 20.1746 48.128 20.8199 47.82C21.4653 47.512 22.2133 47.358 23.0639 47.358C23.9293 47.358 24.6626 47.5267 25.2639 47.864C25.8799 48.1867 26.3346 48.634 26.6279 49.206C26.9359 49.778 27.0606 50.416 27.0019 51.12H24.4939C24.5086 50.5773 24.3766 50.1593 24.0979 49.866C23.8193 49.558 23.4379 49.404 22.9539 49.404C22.4699 49.404 22.0739 49.5507 21.7659 49.844C21.4726 50.1227 21.3259 50.4673 21.3259 50.878C21.3259 51.274 21.4359 51.67 21.6559 52.066C21.8906 52.4473 22.2939 52.946 22.8659 53.562L26.9139 57.588L28.4759 55.014H31.1819L29.2019 58.402L28.6519 59.304L32.3699 63H29.0919ZM21.8979 61.152C23.2766 61.152 24.4939 60.5873 25.5499 59.458L21.5019 55.388C19.7713 56.0773 18.9059 57.1187 18.9059 58.512C18.9059 59.26 19.1846 59.8907 19.7419 60.404C20.2993 60.9027 21.0179 61.152 21.8979 61.152ZM36.5003 47.71V57.456C36.5003 58.6147 36.8009 59.4873 37.4023 60.074C38.0183 60.6607 38.8689 60.954 39.9543 60.954C41.0543 60.954 41.9049 60.6607 42.5063 60.074C43.1223 59.4873 43.4303 58.6147 43.4303 57.456V47.71H45.9383V57.412C45.9383 58.6587 45.6669 59.7147 45.1243 60.58C44.5816 61.4453 43.8556 62.0907 42.9463 62.516C42.0369 62.9413 41.0323 63.154 39.9323 63.154C38.8323 63.154 37.8276 62.9413 36.9183 62.516C36.0236 62.0907 35.3123 61.4453 34.7843 60.58C34.2563 59.7147 33.9923 58.6587 33.9923 57.412V47.71H36.5003ZM60.0006 52.924H57.7566V63H55.2266V52.924H53.7966V50.878H55.2266V50.02C55.2266 48.6267 55.5932 47.6147 56.3266 46.984C57.0746 46.3387 58.2406 46.016 59.8246 46.016V48.106C59.0619 48.106 58.5266 48.2527 58.2186 48.546C57.9106 48.8247 57.7566 49.316 57.7566 50.02V50.878H60.0006V52.924ZM63.4992 49.272C63.0446 49.272 62.6632 49.118 62.3552 48.81C62.0472 48.502 61.8932 48.1207 61.8932 47.666C61.8932 47.2113 62.0472 46.83 62.3552 46.522C62.6632 46.214 63.0446 46.06 63.4992 46.06C63.9392 46.06 64.3132 46.214 64.6212 46.522C64.9292 46.83 65.0832 47.2113 65.0832 47.666C65.0832 48.1207 64.9292 48.502 64.6212 48.81C64.3132 49.118 63.9392 49.272 63.4992 49.272ZM64.7312 50.878V63H62.2232V50.878H64.7312ZM74.14 50.68C75.0934 50.68 75.944 50.878 76.692 51.274C77.4547 51.67 78.0487 52.2567 78.474 53.034C78.8994 53.8113 79.112 54.75 79.112 55.85V63H76.626V56.224C76.626 55.1387 76.3547 54.31 75.812 53.738C75.2694 53.1513 74.5287 52.858 73.59 52.858C72.6514 52.858 71.9034 53.1513 71.346 53.738C70.8034 54.31 70.532 55.1387 70.532 56.224V63H68.024V50.878H70.532V52.264C70.9427 51.7653 71.4634 51.3767 72.094 51.098C72.7394 50.8193 73.4214 50.68 74.14 50.68ZM81.4751 56.884C81.4751 55.6667 81.7245 54.5887 82.2231 53.65C82.7365 52.7113 83.4258 51.9853 84.2911 51.472C85.1711 50.944 86.1391 50.68 87.1951 50.68C88.1485 50.68 88.9771 50.8707 89.6811 51.252C90.3998 51.6187 90.9718 52.0807 91.3971 52.638V50.878H93.9271V63H91.3971V61.196C90.9718 61.768 90.3925 62.2447 89.6591 62.626C88.9258 63.0073 88.0898 63.198 87.1511 63.198C86.1098 63.198 85.1565 62.934 84.2911 62.406C83.4258 61.8633 82.7365 61.1153 82.2231 60.162C81.7245 59.194 81.4751 58.1013 81.4751 56.884ZM91.3971 56.928C91.3971 56.092 91.2211 55.366 90.8691 54.75C90.5318 54.134 90.0845 53.6647 89.5271 53.342C88.9698 53.0193 88.3685 52.858 87.7231 52.858C87.0778 52.858 86.4765 53.0193 85.9191 53.342C85.3618 53.65 84.9071 54.112 84.5551 54.728C84.2178 55.3293 84.0491 56.048 84.0491 56.884C84.0491 57.72 84.2178 58.4533 84.5551 59.084C84.9071 59.7147 85.3618 60.1987 85.9191 60.536C86.4911 60.8587 87.0925 61.02 87.7231 61.02C88.3685 61.02 88.9698 60.8587 89.5271 60.536C90.0845 60.2133 90.5318 59.744 90.8691 59.128C91.2211 58.4973 91.3971 57.764 91.3971 56.928ZM103.337 50.68C104.291 50.68 105.141 50.878 105.889 51.274C106.652 51.67 107.246 52.2567 107.671 53.034C108.097 53.8113 108.309 54.75 108.309 55.85V63H105.823V56.224C105.823 55.1387 105.552 54.31 105.009 53.738C104.467 53.1513 103.726 52.858 102.787 52.858C101.849 52.858 101.101 53.1513 100.543 53.738C100.001 54.31 99.7293 55.1387 99.7293 56.224V63H97.2213V50.878H99.7293V52.264C100.14 51.7653 100.661 51.3767 101.291 51.098C101.937 50.8193 102.619 50.68 103.337 50.68ZM116.612 61.086C118.064 61.086 119.025 60.448 119.494 59.172H122.2C121.878 60.2867 121.298 61.2033 120.462 61.922C119.641 62.626 118.607 63.0367 117.36 63.154V64.056C118.211 64.056 118.9 64.254 119.428 64.65C119.956 65.0607 120.22 65.6327 120.22 66.366C120.22 67.0993 119.956 67.6787 119.428 68.104C118.9 68.544 118.233 68.764 117.426 68.764H114.522V67.18H116.92C117.331 67.18 117.639 67.1213 117.844 67.004C118.05 66.8867 118.152 66.674 118.152 66.366C118.152 66.058 118.05 65.8453 117.844 65.728C117.639 65.6107 117.331 65.552 116.92 65.552H115.71V63.132C114.713 63.0147 113.833 62.6847 113.07 62.142C112.308 61.5847 111.714 60.866 111.288 59.986C110.878 59.0913 110.672 58.072 110.672 56.928C110.672 55.6813 110.922 54.5887 111.42 53.65C111.934 52.6967 112.638 51.9633 113.532 51.45C114.427 50.9367 115.454 50.68 116.612 50.68C118.079 50.68 119.289 51.032 120.242 51.736C121.21 52.4253 121.863 53.4153 122.2 54.706H119.494C119.274 54.1047 118.922 53.6353 118.438 53.298C117.954 52.9607 117.346 52.792 116.612 52.792C115.586 52.792 114.764 53.1587 114.148 53.892C113.547 54.6107 113.246 55.6227 113.246 56.928C113.246 58.2333 113.547 59.2527 114.148 59.986C114.764 60.7193 115.586 61.086 116.612 61.086ZM123.864 56.884C123.864 55.6667 124.113 54.5887 124.612 53.65C125.125 52.7113 125.814 51.9853 126.68 51.472C127.56 50.944 128.528 50.68 129.584 50.68C130.537 50.68 131.366 50.8707 132.07 51.252C132.788 51.6187 133.36 52.0807 133.786 52.638V50.878H136.316V63H133.786V61.196C133.36 61.768 132.781 62.2447 132.048 62.626C131.314 63.0073 130.478 63.198 129.54 63.198C128.498 63.198 127.545 62.934 126.68 62.406C125.814 61.8633 125.125 61.1153 124.612 60.162C124.113 59.194 123.864 58.1013 123.864 56.884ZM133.786 56.928C133.786 56.092 133.61 55.366 133.258 54.75C132.92 54.134 132.473 53.6647 131.916 53.342C131.358 53.0193 130.757 52.858 130.112 52.858C129.466 52.858 128.865 53.0193 128.308 53.342C127.75 53.65 127.296 54.112 126.944 54.728C126.606 55.3293 126.438 56.048 126.438 56.884C126.438 57.72 126.606 58.4533 126.944 59.084C127.296 59.7147 127.75 60.1987 128.308 60.536C128.88 60.8587 129.481 61.02 130.112 61.02C130.757 61.02 131.358 60.8587 131.916 60.536C132.473 60.2133 132.92 59.744 133.258 59.128C133.61 58.4973 133.786 57.764 133.786 56.928ZM144.01 63.198C143.057 63.198 142.199 63.0293 141.436 62.692C140.688 62.34 140.094 61.8707 139.654 61.284C139.214 60.6827 138.979 60.0153 138.95 59.282H141.546C141.59 59.7953 141.832 60.228 142.272 60.58C142.727 60.9173 143.291 61.086 143.966 61.086C144.67 61.086 145.213 60.954 145.594 60.69C145.99 60.4113 146.188 60.0593 146.188 59.634C146.188 59.1793 145.968 58.842 145.528 58.622C145.103 58.402 144.421 58.16 143.482 57.896C142.573 57.6467 141.832 57.4047 141.26 57.17C140.688 56.9353 140.189 56.576 139.764 56.092C139.353 55.608 139.148 54.97 139.148 54.178C139.148 53.5327 139.339 52.946 139.72 52.418C140.101 51.8753 140.644 51.45 141.348 51.142C142.067 50.834 142.888 50.68 143.812 50.68C145.191 50.68 146.298 51.032 147.134 51.736C147.985 52.4253 148.439 53.3713 148.498 54.574H145.99C145.946 54.0313 145.726 53.5987 145.33 53.276C144.934 52.9533 144.399 52.792 143.724 52.792C143.064 52.792 142.558 52.9167 142.206 53.166C141.854 53.4153 141.678 53.7453 141.678 54.156C141.678 54.4787 141.795 54.75 142.03 54.97C142.265 55.19 142.551 55.366 142.888 55.498C143.225 55.6153 143.724 55.7693 144.384 55.96C145.264 56.1947 145.983 56.4367 146.54 56.686C147.112 56.9207 147.603 57.2727 148.014 57.742C148.425 58.2113 148.637 58.8347 148.652 59.612C148.652 60.3013 148.461 60.9173 148.08 61.46C147.699 62.0027 147.156 62.428 146.452 62.736C145.763 63.044 144.949 63.198 144.01 63.198Z" fill="white"/>
</svg>
